<?xml version="1.0" ?><!-- Uploaded to: SVG Repo, www.svgrepo.com, Generator: SVG Repo Mixer Tools -->
<svg fill="#000000" width="800px" height="800px" viewBox="0 0 512 512" data-name="Layer 1" id="Layer_1" xmlns="http://www.w3.org/2000/svg"><path d="M493.39,263.38,404,182.13V80.25a4.53,4.53,0,0,0-4.53-4.54H335.64a4.53,4.53,0,0,0-4.53,4.54V116L259.05,50.51a4.54,4.54,0,0,0-6.1,0L18.61,263.38a4.53,4.53,0,0,0,3.05,7.88H76V458.14a4.54,4.54,0,0,0,9.07,0V266.73a4.53,4.53,0,0,0-4.53-4.53H33.39L256,60l76.59,69.58a4.54,4.54,0,0,0,7.59-3.35V84.78h54.7v99.36a4.51,4.51,0,0,0,1.49,3.35l82.24,74.71h-47.1a4.53,4.53,0,0,0-4.53,4.53V458.14a4.53,4.53,0,0,0,9.06,0V271.26h54.3a4.53,4.53,0,0,0,3.05-7.88Z"/><path d="M226.93,256.45c-2,0-3.58,2.9-3.58,6.48s1.61,6.48,3.58,6.48,3.58-2.9,3.58-6.48S228.91,256.45,226.93,256.45Z"/><ellipse cx="285.07" cy="262.93" rx="3.58" ry="6.48"/><path d="M274.16,285.1A28.93,28.93,0,0,1,256,291.27a28.34,28.34,0,0,1-18.16-6.17,4.53,4.53,0,0,0-6.17,6.64,38.75,38.75,0,0,0,48.66,0,4.53,4.53,0,0,0-6.17-6.64Z"/><path d="M319.58,392.56H291.41a4.53,4.53,0,1,0,0,9.06h28.17a4.53,4.53,0,1,0,0-9.06Z"/><path d="M317.92,164c-31.84-9-51.81,7.36-57.5,13-1.46-.09-2.93-.15-4.42-.15A71.15,71.15,0,0,0,229.64,314a87.91,87.91,0,0,0-13.76,5.59,4.15,4.15,0,0,0-.76.38A89.16,89.16,0,0,0,167,399.11v59a4.53,4.53,0,0,0,9.06,0v-59a80,80,0,0,1,39.15-68.76l36.59,98.51a4.54,4.54,0,0,0,8.5,0l36.59-98.51A80,80,0,0,1,336,399.11v59a4.53,4.53,0,0,0,9.06,0v-59A89.15,89.15,0,0,0,296.88,320a5.17,5.17,0,0,0-.74-.38A88.14,88.14,0,0,0,282.36,314a71.59,71.59,0,0,0,36.08-32,33.62,33.62,0,0,0,30.3,20.5h.19a4.54,4.54,0,0,0,4.06-6.48c-1.51-3.16-.77-8.95,2-15.88a103.57,103.57,0,0,0,7.3-28.11C366.68,209.53,348,172.47,317.92,164ZM256,185.85a62.17,62.17,0,0,1,61.86,56.82,48.77,48.77,0,0,1-32.34-23.18,4.53,4.53,0,0,0-7.48-.86c-22.26,26.2-69.32,22.36-83.51,20.52A62.19,62.19,0,0,1,256,185.85Zm0,228.41-20.13-54.21a42.08,42.08,0,0,0,40.27,0Zm32.73-88.14-7.48,20.15c-3,2.34-13.71,9.84-25.25,9.84s-22.21-7.51-25.25-9.85l-7.48-20.14a79.91,79.91,0,0,1,65.46,0ZM256,310.05a62.16,62.16,0,0,1-62.09-61.81c15.36,2,60.79,5.47,86.9-19.37a57.79,57.79,0,0,0,37.15,23A62.16,62.16,0,0,1,256,310.05Zm97.28-58.88a94.45,94.45,0,0,1-6.69,25.66c-2.42,6-3.56,11.29-3.44,15.79-6.69-1.81-17-7.37-19-24.3a71,71,0,0,0,3-20.37h0s0-.08,0-.12a71.28,71.28,0,0,0-54.61-69.09c7.95-5.38,22.58-11.77,42.91-6C341.31,180,357.21,213,353.28,251.17Z"/></svg>